<?xml version="1.0"?>
<svg xmlns:rdf="http://www.w3.org/1999/02/22-rdf-syntax-ns#" xmlns="http://www.w3.org/2000/svg" xmlns:cc="http://creativecommons.org/ns#" xmlns:xlink="http://www.w3.org/1999/xlink" xmlns:dc="http://purl.org/dc/elements/1.1/" id="svg6018" viewBox="0 0 384.36 300.09" version="1.1">
 <title id="title6172">lil shop</title>
 <defs id="defs6020">
  <linearGradient id="linearGradient5437" y2="463.95" gradientUnits="userSpaceOnUse" x2="209.1" gradientTransform="matrix(.25901 0 0 .26014 -254.85 664.75)" y1="386.17" x1="207.08">
   <stop id="stop4045" stop-opacity=".38583" offset="0"/>
   <stop id="stop4047" stop-opacity="0" offset="1"/>
  </linearGradient>
  <linearGradient id="linearGradient5433" y2="506.09" xlink:href="#linearGradient4051" gradientUnits="userSpaceOnUse" x2="214.93" gradientTransform="matrix(.26014 0 0 .26014 -254.93 664.75)" y1="506.09" x1="116.14"/>
  <linearGradient id="linearGradient4051">
   <stop id="stop4053" stop-color="#606060" offset="0"/>
   <stop id="stop4055" stop-color="#121212" offset="1"/>
  </linearGradient>
  <linearGradient id="linearGradient5430" y2="543.62" xlink:href="#linearGradient4051" gradientUnits="userSpaceOnUse" x2="354.93" gradientTransform="matrix(.26014 0 0 .26014 -254.93 664.75)" y1="543.62" x1="266.14"/>
  <linearGradient id="linearGradient5427" y2="623.61" xlink:href="#linearGradient4051" gradientUnits="userSpaceOnUse" x2="355.29" gradientTransform="matrix(.26014 0 0 .26014 -254.93 664.75)" y1="623.61" x1="266.86"/>
  <linearGradient id="linearGradient5416" y2="213.78" gradientUnits="userSpaceOnUse" x2="354.52" gradientTransform="matrix(.26014 0 0 .26014 -254.93 664.75)" y1="285.2" x1="383.53">
   <stop id="stop4288" stop-color="#d1d1d1" offset="0"/>
   <stop id="stop4290" stop-color="#fff" offset="1"/>
  </linearGradient>
  <linearGradient id="linearGradient5410" y2="389.7" gradientUnits="userSpaceOnUse" x2="168.7" gradientTransform="matrix(.26014 0 0 .26014 -254.93 664.75)" y1="360.41" x1="165.67">
   <stop id="stop4035" stop-opacity=".41732" offset="0"/>
   <stop id="stop4037" stop-opacity="0" offset="1"/>
  </linearGradient>
 </defs>
 <g id="layer1" transform="translate(-181.1 -399.59)">
  <g id="g5903" transform="matrix(1.7979 0 0 1.7979 679.79 -843.21)">
   <path id="path3936-4-1-2" d="m-152.68 826.39-124.18 5.18-0.0282 4.878 125.23 21.186 87.521-23.832 0.0108-3.9283z" stroke="#000" fill="#dcdcdc"/>
   <path id="path4185-4" d="m-151.82 851.98 0.10316 5.3707 87.477-23.577v-3.7594l-69.025 16.625z" fill-opacity=".6"/>
   <path id="path3936-4-1" d="m-153.08 821.49-124.21 10.058 125.63 20.924 87.955-22.564z" stroke="#000" fill="#fff"/>
   <path id="rect2985" stroke-linejoin="round" d="m-235.61 750.42 83.246-10.127v102.48l-83.246-11.428z" stroke="#000" stroke-linecap="round" fill="#fff"/>
   <path id="path3936" d="m-189.24 769.01 0.26278 17.344 29.695-0.26278-0.10885-18.857z" stroke="#000" fill="#cd0003"/>
   <path id="rect2985-0-6-8-06" stroke-linejoin="round" d="m-230.73 770.39 34.562-2.1369-0.30593 57.422-34.256-3.2312z" stroke="#000" stroke-linecap="round" fill="#fff"/>
   <path id="path3397-4-0" d="m-152.45 843.05h34.563l54.294-12.862-27.475-2.6831-61.047 1.8192z" fill-opacity=".25"/>
   <path id="rect2985-0" stroke-linejoin="round" d="m-90.579 750.37-61.691-9.825v102.41l61.691-12.961z" stroke="#000" stroke-linecap="round" fill="#e0e0e0"/>
   <path id="rect2985-0-6" stroke-linejoin="round" d="m-188.88 789.81 29.545 0.23227-0.0929 51.703-29.359-4.3202z" stroke="#000" stroke-linecap="round" fill="#fff"/>
   <text id="text4115" style="word-spacing:0px;letter-spacing:0px" xml:space="preserve" transform="matrix(1.0774 -.054126 0 .92812 0 0)" line-height="125%" font-size="17.004px" y="834.88721" x="-173.76192" font-family="Sans" fill="#ffffff">
        <tspan id="tspan4117" y="834.88721" x="-173.76192" font-family="Headline One" fill="#ffffff">SALE</tspan>
      </text>
   <path id="path4041" d="m-236.01 766.39 0.26163 26.541 82.939 0.78835 0.26164-33.899z" fill="url(#linearGradient5437)"/>
   <path id="rect2985-0-6-0" stroke-linejoin="round" d="m-227.62 772.02 28.383-1.3936-0.0464 51.843-28.662-2.6014z" stroke="#000" stroke-linecap="round" fill="#fff"/>
   <path id="path3810" d="m-224.46 772.67v46.64l25.178 2.044-0.0232-49.903z" stroke="#000" fill="url(#linearGradient5433)"/>
   <path id="rect2985-0-6-8" stroke-linejoin="round" d="m-185.44 794.32 22.577 0.46455-0.0272 23.232-22.364-1.6517z" stroke="#000" stroke-linecap="round" fill="url(#linearGradient5430)"/>
   <path id="rect2985-0-6-8-0" stroke-linejoin="round" d="m-185.07 818.56 22.298 1.7493v15.069l-22.484-2.4621z" stroke="#000" stroke-linecap="round" fill="url(#linearGradient5427)"/>
   <path id="rect2985-0-6-8-0-8" stroke-linejoin="round" d="m-189.55 814.36 2.7719 0.1314 0.0657 5.6946-2.8098-0.24024z" stroke="#000" stroke-linecap="round" fill="#fff"/>
   <path id="path3866" d="m-235.81 750.29-23.822 12.32 0.15528 9.3222 91.582-5.3008 17.237 0.85212-0.061-26.71-1.6482-0.55608z" stroke="#000" fill="#fff"/>
   <path id="path3868" d="m-230.38 749.66-21.613 12.12 0.0231 9.6706 7.1416-0.37892-0.11612-9.9102 21.863-12.368z" stroke="#000" fill="#ff0104"/>
   <path id="path3870" d="m-215.73 747.94-18.8 12.304 0.0464 10.259 8.4091-0.51828-0.10749-10.452 19.216-12.721z" stroke="#000" fill="#ff0104"/>
   <path id="path3872" d="m-200.61 746.07-17.964 12.845-0.0929 10.623 8.4091-0.44861 0.001-10.977 17.235-12.998z" stroke="#000" fill="#ff0104"/>
   <path id="path3874" d="m-186.68 744.26-15.911 13.216 0.0232 11.186 9.3673-0.62576 0.10156-11.381 15.998-13.491z" stroke="#000" fill="#ff0104"/>
   <path id="path3876" d="m-169.56 742.22-14.469 13.663 0.0305 11.705 9.2134-0.68087v-11.86l14.848-13.983z" stroke="#000" fill="#ff0104"/>
   <path id="path3896" d="m-152.64 740.71-14.029 14.029-0.0206 11.505 15.525 0.75454-0.13139-25.692z" stroke="#000" fill="#ff0104"/>
   <path id="rect2985-8" stroke-linejoin="round" d="m-234.8 714.11 82.983-22.346v47.819l-82.983 10.121z" stroke="#000" stroke-linecap="round" fill="url(#linearGradient5416)"/>
   <path id="rect2985-8-5" stroke-linejoin="round" d="m-148.78 693.48-2.7103-1.1634v47.819l2.8961 0.64395z" stroke="#000" stroke-linecap="round" fill="#dadada"/>
   <path id="path3934" d="m-148.28 718.5 10.22 24.342h2.7872l-13.193-30.846z" stroke="#000" fill="#dadada"/>
   <path id="path3936-4" d="m-190.01 838.56-18.876 3.2217 34.897 5.4975 14.756-4.363z" stroke="#000" fill="#cd0003"/>
   <path id="path4031" d="m-259.66 762.44 92.237-7.6207 0.78835 10.511-92.763 5.7812z" fill="url(#linearGradient5410)"/>
   <path id="path4069" d="m-171.5 795.1-7.4894 21.548 2.5622 0.32848 7.4893-21.811z" fill-opacity=".17593" fill="#fff"/>
   <path id="path4071" d="m-167.89 795.36-7.2923 21.483 1.9709 0.26278 7.0295-21.877z" fill-opacity=".17593" fill="#fff"/>
   <path id="path4069-3" d="m-209.43 771.02-15.027 48.72 2.0103 0.18777 15.388-49.054z" fill-opacity=".17593" fill="#fff"/>
   <path id="path4071-4" d="m-205.92 770.96-15.113 49.064 1.0183 0.10424 15.205-49.269z" fill-opacity=".17593" fill="#fff"/>
   <path id="path4069-5" d="m-172.78 819.7-5.7812 13.834 1.8395 0.40496 5.9783-14.197z" fill-opacity=".17593" fill="#fff"/>
   <path id="path4071-6" d="m-169.69 819.86-5.7812 13.989 1.0511 0.29769 5.847-14.239z" fill-opacity=".17593" fill="#fff"/>
   <path id="path4147" d="m-192.04 707.82c-1.6725 0.50253-2.9477 1.6738-3.8211 3.5207-0.81595 1.6838-1.2232 3.771-1.2215 6.2508 0.00078 1.1576 0.002 2.3152 0.003 3.4728 0.001 1.3898 0.50702 2.8204 1.5121 4.3176 0.17061 0.2687 1.0982 1.4545 2.7835 3.581 1.0028 1.2721 1.4955 2.2633 1.4763 2.9651-0.0204 0.78599-0.0408 1.5718-0.0612 2.3576-0.0384 1.3746-0.34833 2.1088-0.93432 2.1936-0.73724 0.10682-1.1066-0.8345-1.1066-2.8284 0.00001-0.68009 0.00003-1.3602 0.00004-2.0403 0.00001-0.72-0.0971-1.0641-0.28638-1.0317-0.18925 0.0324-0.7234 0.15663-1.6128 0.36379-0.87052 0.20353-1.401 0.31556-1.5902 0.34783-0.18925 0.0323-0.29741 0.3357-0.31593 0.91081-0.0182 0.98351-0.0289 1.6948-0.0286 2.1305-0.036 2.5652 0.45423 4.578 1.4565 6.0576 0.94493 1.3908 2.0819 2.0204 3.4226 1.8594 1.5484-0.18586 2.7529-1.0584 3.604-2.604 0.85156-1.5561 1.2752-3.5812 1.278-6.0811 0.001-0.98046 0.002-1.9609 0.003-2.9414 0.002-1.4488-0.49352-3.0248-1.4953-4.7074-0.94595-1.3123-1.895-2.6092-2.842-3.8973-1.0044-1.375-1.5096-2.481-1.5096-3.3398 0.00003-0.72079 0.00005-1.4416 0.00008-2.1624 0.00007-1.8284 0.3711-2.8373 1.1115-3.0176 0.26579-0.0647 0.47556 0.17607 0.62722 0.72541 0.17062 0.51773 0.24529 1.0791 0.22609 1.6703-0.0576 1.6054-0.0729 2.7224-0.0542 3.3606-0.00017 0.41901 0.12326 0.60749 0.36977 0.55439 1.5169-0.24212 2.5461-0.46336 3.0961-0.66663 0.2086-0.0733 0.31744-0.33207 0.31791-0.7579 0.002-1.4056 0.003-2.8112 0.005-4.2168 0.003-2.2426-0.37805-3.9445-1.1366-5.1085-0.81586-1.2246-1.907-1.6327-3.2754-1.2388m-38.312 10.374c-0.26175 0.0877-0.39096 0.4145-0.3862 0.98319 0.0117 5.9514 0.1123 14.816 0.30553 26.595 0.004 0.51091 0.15195 0.76827 0.43561 0.78044 0.6239 0.0179 1.7236-0.0962 3.3094-0.33483 2.6056-0.36276 3.8504-0.53248 3.7371-0.51875 0.47208-0.0572 0.71672-0.30685 0.7329-0.74503 0.008-1.8186 0-3.1475-0.0247-3.9924-0.003-0.43586-0.22797-0.62273-0.68168-0.55586-1.9662 0.28985-2.9514 0.43508-2.9514 0.43507-0.4161 0.0376-0.63082-0.2117-0.65371-0.75396-0.0734-2.2658-0.11439-6.3277-0.11933-12.187-0.003-5.3879-0.0362-8.5989-0.10078-9.6268-0.003-0.23688 0.008-0.46904 0.0252-0.68734-0.0399-0.2505-0.18706-0.32364-0.43397-0.23411-1.6528 0.51128-2.6732 0.78301-3.0728 0.81944-0.0428 0.003-0.0838 0.0105-0.12118 0.023m14.252-3.8012c-0.26181 0.089-0.39196 0.4373-0.38902 1.0479-0.007 6.3891 0.0648 15.907 0.22021 28.555 0.003 0.54852 0.14945 0.82614 0.43296 0.84172 0.62361 0.0248 1.7307-0.089 3.3167-0.33097 2.6057-0.36619 3.8506-0.53725 3.7373-0.52352 0.47209-0.0572 0.71741-0.32239 0.73493-0.79136 0.0131-1.9469 0.009-3.3697-0.0126-4.2744-0.002-0.46665-0.23348-0.66796-0.6872-0.60108-1.9662 0.28985-2.9438 0.43397-2.9438 0.43396-0.41602 0.0359-0.6374-0.23255-0.65857-0.81414-0.0662-2.43-0.0945-6.7852-0.081-13.067 0.0155-5.7761-0.009-9.2189-0.0705-10.322-0.001-0.25399 0.009-0.50268 0.0274-0.73637-0.0391-0.26931-0.17834-0.35257-0.4253-0.26133-1.6531 0.51642-2.6809 0.79015-3.0804 0.82145-0.0428 0.002-0.0837 0.01-0.12113 0.0224m44.949-11.844c-1.3873 0.36927-2.4284 1.2157-3.1163 2.5358-0.84036 1.5918-1.2676 4.0132-1.2778 7.2657-0.0218 6.9082-0.0435 13.816-0.0653 20.725-0.008 2.596 0.31413 4.426 0.95259 5.5102 0.67564 1.1758 1.7953 1.6832 3.3624 1.4973 3.021-0.35829 4.5385-3.136 4.5622-8.3289l0.1002-22.022c0.0149-3.2764-0.40958-5.4595-1.2777-6.5281-0.67968-0.83407-1.7579-1.049-3.2402-0.65449m7.152-1.8911c-0.2554 0.0738-0.4789 0.14906-0.67376 0.21644-0.32322 0.11707-0.4854 0.34399-0.48703 0.68584-0.0409 12.276-0.0819 24.553-0.12293 36.832-0.002 0.37307 0.12025 0.56079 0.36558 0.56244 1.34-0.0358 2.3464-0.15607 3.008-0.36106 0.20787-0.0565 0.3099-0.33619 0.3126-0.84074 0.0683-5.7446 0.11375-10.062 0.12905-12.933 0.003-0.44156 0.12677-0.6747 0.37284-0.71769 1.0221-0.17853 1.9775-0.81616 2.8725-1.8992 1.2193-1.501 1.8358-3.4214 1.85-5.7683 0.0234-3.8581 0.0467-7.7162 0.07-11.574 0.0109-1.8004-0.48991-3.1743-1.5087-4.0953-0.92458-0.87317-1.9493-1.1469-3.0705-0.84898-1.3109 0.27781-2.3515 0.52021-3.1177 0.74169m-13.108 3.5236c-1.2543 0.33362-2.2709 0.62714-3.0502 0.89282-0.13296 0.006-0.19716 0.21364-0.19811 0.62323-0.0114 4.857-0.0209 8.8999-0.0285 12.118-0.001 0.46817-0.11029 0.75678-0.31896 0.85922-0.64502 0.33994-1.1764 0.45719-1.5931 0.37058-0.0947-0.009-0.1469-0.0953-0.16549-0.26538-0.0188-0.083-0.0297-0.25233-0.0292-0.51341-0.0349-1.5289-0.0306-3.6814 0.0128-6.4457 0.0452-3.6354 0.0638-5.4374 0.0637-5.4084 0.001-0.46416-0.13734-0.67355-0.42234-0.62688 0 0.00004-1.0391 0.27606-3.1105 0.82626-0.19004 0.0505-0.28035 0.31678-0.281 0.80217-0.17141 14.879-0.17089 25.877 0.009 33.017 0.0181 0.62603 0.16666 0.94074 0.44987 0.93522 0.79291 0.0193 1.5906-0.11049 2.384-0.37914 0.49113-0.1462 0.74142-0.47975 0.76135-1.004 0.0864-5.4621 0.12898-9.9733 0.11719-13.538 0.0198-0.43852 0.10621-0.67763 0.25769-0.70539 0.83326-0.21084 1.3416-0.30406 1.5308-0.28036 0.22709 0.0169 0.34989 0.21966 0.36794 0.59665-0.0207 4.5237-0.0414 9.047-0.0621 13.57-0.002 0.76081 0.12035 1.1099 0.36591 1.051 0.15113-0.0475 0.53134-0.0934 1.1355-0.13673 0.54753-0.0364 0.99119-0.13061 1.3314-0.28998 0.35903-0.13233 0.53497-0.42299 0.53627-0.86802 0.003-0.83072 0.0516-6.1533 0.13704-15.956 0.0839-9.2134 0.11329-15.375 0.0845-18.482 0.002-0.53426-0.0952-0.78363-0.28512-0.76281m-44.274 11.814c-0.15203 0.0404-0.25242 0.21127-0.30765 0.51794-0.0368 0.2044-0.058 0.43091-0.0566 0.6738 0.08 10.053 0.12414 19.185 0.13618 27.401 0.004 0.72865 0.20068 1.0985 0.57864 1.1018 1.5304-0.0118 2.5181-0.12952 2.9704-0.35655 0.30164-0.13527 0.4489-0.50533 0.44586-1.0998-0.0589-11.518-0.10668-20.877-0.14352-28.085-0.0224-0.639-0.1891-0.94729-0.51243-0.91106-1.2545 0.28385-2.2937 0.54066-3.1109 0.75781m16.93-4.4681c-0.62707 0.19291-1.2384 0.38633-1.8464 0.57383-0.095 0.0252-0.18116 0.0997-0.25691 0.22426-0.0567 0.11954-0.0902 0.24699-0.0899 0.37748 0.005 2.0237 0.0106 4.0475 0.0159 6.0712 0.003 0.96588 0.14102 2.332 0.41125 4.103 0.0385 0.22723 0.15108 0.3219 0.3407 0.28119 1.1568-0.19553 1.8117-0.3308 1.9634-0.38976 0.18956-0.0671 0.30151-0.24789 0.33886-0.54725 0.3362-2.7516 0.50591-4.1578 0.50581-4.2109-0.0198-0.42-0.0348-2.4072-0.0415-5.962-0.001-0.55706-0.448-0.73179-1.3412-0.52105m43.024-5.522c0.0178-0.008 0.0415-0.018 0.0605-0.0147 0.20849 0.0123 0.34691 0.0161 0.42285-0.002 0.18968-0.0145 0.38815-0.0378 0.59681-0.0569 0.20795 0.1078 0.36659 0.5195 0.47645 1.2217 0.12755 0.92059 0.17895 2.4417 0.14814 4.5728-0.0326 2.4482-0.16491 4.065-0.39637 4.8406-0.13493 0.43875-0.43171 0.72919-0.88681 0.88332-0.15211 0.12503-0.27564 0.16836-0.37004 0.12413-0.18882-0.0883-0.27746-0.27558-0.27595-0.55923 0.005-4.4708 0.0115-7.883 0.0241-10.246-0.018-0.18445-0.002-0.36849 0.0557-0.53989 0.0433-0.12853 0.0912-0.1984 0.14465-0.22323m-9.6055 3.208c0.5315-0.12752 0.79017 0.70586 0.78299 2.5039-0.0247 6.1696-0.0493 12.339-0.0739 18.509-0.006 1.5543-0.27051 2.3689-0.79987 2.4471-0.3214 0.0475-0.55235-0.0379-0.68378-0.26072-0.13133-0.25277-0.19239-0.87666-0.18866-1.8757 0.0229-6.1288 0.0457-12.258 0.0686-18.386 0.007-1.8164 0.30618-2.7958 0.89464-2.937" fill="#982828"/>
  </g>
 </g>
 <metadata>
  <rdf:RDF>
   <cc:Work>
    <dc:format>image/svg+xml</dc:format>
    <dc:type rdf:resource="http://purl.org/dc/dcmitype/StillImage"/>
    <cc:license rdf:resource="http://creativecommons.org/licenses/publicdomain/"/>
    <dc:publisher>
     <cc:Agent rdf:about="http://openclipart.org/">
      <dc:title>Openclipart</dc:title>
     </cc:Agent>
    </dc:publisher>
   </cc:Work>
   <cc:License rdf:about="http://creativecommons.org/licenses/publicdomain/">
    <cc:permits rdf:resource="http://creativecommons.org/ns#Reproduction"/>
    <cc:permits rdf:resource="http://creativecommons.org/ns#Distribution"/>
    <cc:permits rdf:resource="http://creativecommons.org/ns#DerivativeWorks"/>
   </cc:License>
  </rdf:RDF>
 </metadata>
</svg>
